<svg width="128" height="33" viewBox="0 0 128 33" fill="none" xmlns="http://www.w3.org/2000/svg">
<path d="M15.7609 32.5C24.4654 32.5 31.5217 25.4436 31.5217 16.7391C31.5217 8.03464 24.4654 0.97826 15.7609 0.97826C7.05638 0.97826 0 8.03464 0 16.7391C0 25.4436 7.05638 32.5 15.7609 32.5Z" fill="url(#paint0_linear_7_920)"/>
<path d="M46.2285 21.4062C46.2285 21.0742 46.1764 20.7812 46.0723 20.5273C45.9746 20.2669 45.7988 20.0326 45.5449 19.8242C45.2975 19.6159 44.9525 19.4173 44.5098 19.2285C44.0736 19.0397 43.5202 18.8477 42.8496 18.6523C42.1465 18.444 41.5117 18.2129 40.9453 17.959C40.3789 17.6986 39.8939 17.4023 39.4902 17.0703C39.0866 16.7383 38.7773 16.3574 38.5625 15.9277C38.3477 15.498 38.2402 15.0065 38.2402 14.4531C38.2402 13.8997 38.3542 13.3887 38.582 12.9199C38.8099 12.4512 39.1354 12.0443 39.5586 11.6992C39.9883 11.3477 40.4993 11.0742 41.0918 10.8789C41.6842 10.6836 42.3451 10.5859 43.0742 10.5859C44.1419 10.5859 45.0469 10.791 45.7891 11.2012C46.5378 11.6048 47.1074 12.1354 47.498 12.793C47.8887 13.444 48.084 14.1406 48.084 14.8828H46.209C46.209 14.349 46.0951 13.877 45.8672 13.4668C45.6393 13.0501 45.2943 12.7246 44.832 12.4902C44.3698 12.2493 43.7839 12.1289 43.0742 12.1289C42.4036 12.1289 41.8503 12.2298 41.4141 12.4316C40.9779 12.6335 40.6523 12.9069 40.4375 13.252C40.2292 13.597 40.125 13.9909 40.125 14.4336C40.125 14.7331 40.1868 15.0065 40.3105 15.2539C40.4408 15.4948 40.6393 15.7194 40.9062 15.9277C41.1797 16.1361 41.5247 16.3281 41.9414 16.5039C42.3646 16.6797 42.8691 16.849 43.4551 17.0117C44.2624 17.2396 44.959 17.4935 45.5449 17.7734C46.1309 18.0534 46.6126 18.3691 46.9902 18.7207C47.3743 19.0658 47.6576 19.4596 47.8398 19.9023C48.0286 20.3385 48.123 20.8333 48.123 21.3867C48.123 21.9661 48.0059 22.4902 47.7715 22.959C47.5371 23.4277 47.2018 23.8281 46.7656 24.1602C46.3294 24.4922 45.8053 24.7493 45.1934 24.9316C44.5879 25.1074 43.9108 25.1953 43.1621 25.1953C42.5046 25.1953 41.8568 25.1042 41.2188 24.9219C40.5872 24.7396 40.0111 24.4661 39.4902 24.1016C38.9759 23.737 38.5625 23.2878 38.25 22.7539C37.944 22.2135 37.791 21.5885 37.791 20.8789H39.666C39.666 21.3672 39.7604 21.7871 39.9492 22.1387C40.138 22.4837 40.3952 22.7702 40.7207 22.998C41.0527 23.2259 41.4271 23.3952 41.8438 23.5059C42.2669 23.61 42.7064 23.6621 43.1621 23.6621C43.8197 23.6621 44.3763 23.571 44.832 23.3887C45.2878 23.2064 45.6328 22.946 45.8672 22.6074C46.1081 22.2689 46.2285 21.8685 46.2285 21.4062ZM49.7734 19.834V19.6094C49.7734 18.8477 49.8841 18.1413 50.1055 17.4902C50.3268 16.8327 50.6458 16.263 51.0625 15.7812C51.4792 15.293 51.9837 14.9154 52.5762 14.6484C53.1686 14.375 53.8327 14.2383 54.5684 14.2383C55.3105 14.2383 55.9779 14.375 56.5703 14.6484C57.1693 14.9154 57.6771 15.293 58.0938 15.7812C58.5169 16.263 58.8392 16.8327 59.0605 17.4902C59.2819 18.1413 59.3926 18.8477 59.3926 19.6094V19.834C59.3926 20.5957 59.2819 21.3021 59.0605 21.9531C58.8392 22.6042 58.5169 23.1738 58.0938 23.6621C57.6771 24.1439 57.1725 24.5215 56.5801 24.7949C55.9941 25.0618 55.3301 25.1953 54.5879 25.1953C53.8457 25.1953 53.1784 25.0618 52.5859 24.7949C51.9935 24.5215 51.4857 24.1439 51.0625 23.6621C50.6458 23.1738 50.3268 22.6042 50.1055 21.9531C49.8841 21.3021 49.7734 20.5957 49.7734 19.834ZM51.5801 19.6094V19.834C51.5801 20.3613 51.6419 20.8594 51.7656 21.3281C51.8893 21.7904 52.0749 22.2005 52.3223 22.5586C52.5762 22.9167 52.8919 23.1999 53.2695 23.4082C53.6471 23.61 54.0866 23.7109 54.5879 23.7109C55.0827 23.7109 55.5156 23.61 55.8867 23.4082C56.2643 23.1999 56.5768 22.9167 56.8242 22.5586C57.0716 22.2005 57.2572 21.7904 57.3809 21.3281C57.5111 20.8594 57.5762 20.3613 57.5762 19.834V19.6094C57.5762 19.0885 57.5111 18.597 57.3809 18.1348C57.2572 17.666 57.0684 17.2526 56.8145 16.8945C56.5671 16.5299 56.2546 16.2435 55.877 16.0352C55.5059 15.8268 55.0697 15.7227 54.5684 15.7227C54.0736 15.7227 53.6374 15.8268 53.2598 16.0352C52.8887 16.2435 52.5762 16.5299 52.3223 16.8945C52.0749 17.2526 51.8893 17.666 51.7656 18.1348C51.6419 18.597 51.5801 19.0885 51.5801 19.6094ZM63.6211 10V25H61.8047V10H63.6211Z" fill="#EBE5FF"/>
<path d="M72.0391 19.4238H68.2402V17.8906H72.0391C72.7747 17.8906 73.3704 17.7734 73.8262 17.5391C74.2819 17.3047 74.6139 16.9792 74.8223 16.5625C75.0371 16.1458 75.1445 15.6706 75.1445 15.1367C75.1445 14.6484 75.0371 14.1895 74.8223 13.7598C74.6139 13.3301 74.2819 12.985 73.8262 12.7246C73.3704 12.4577 72.7747 12.3242 72.0391 12.3242H68.6797V25H66.7949V10.7812H72.0391C73.1133 10.7812 74.0215 10.9668 74.7637 11.3379C75.5059 11.709 76.069 12.2233 76.4531 12.8809C76.8372 13.5319 77.0293 14.2773 77.0293 15.1172C77.0293 16.0286 76.8372 16.8066 76.4531 17.4512C76.069 18.0957 75.5059 18.5872 74.7637 18.9258C74.0215 19.2578 73.1133 19.4238 72.0391 19.4238ZM78.5234 19.834V19.6094C78.5234 18.8477 78.6341 18.1413 78.8555 17.4902C79.0768 16.8327 79.3958 16.263 79.8125 15.7812C80.2292 15.293 80.7337 14.9154 81.3262 14.6484C81.9186 14.375 82.5827 14.2383 83.3184 14.2383C84.0605 14.2383 84.7279 14.375 85.3203 14.6484C85.9193 14.9154 86.4271 15.293 86.8438 15.7812C87.2669 16.263 87.5892 16.8327 87.8105 17.4902C88.0319 18.1413 88.1426 18.8477 88.1426 19.6094V19.834C88.1426 20.5957 88.0319 21.3021 87.8105 21.9531C87.5892 22.6042 87.2669 23.1738 86.8438 23.6621C86.4271 24.1439 85.9225 24.5215 85.3301 24.7949C84.7441 25.0618 84.0801 25.1953 83.3379 25.1953C82.5957 25.1953 81.9284 25.0618 81.3359 24.7949C80.7435 24.5215 80.2357 24.1439 79.8125 23.6621C79.3958 23.1738 79.0768 22.6042 78.8555 21.9531C78.6341 21.3021 78.5234 20.5957 78.5234 19.834ZM80.3301 19.6094V19.834C80.3301 20.3613 80.3919 20.8594 80.5156 21.3281C80.6393 21.7904 80.8249 22.2005 81.0723 22.5586C81.3262 22.9167 81.6419 23.1999 82.0195 23.4082C82.3971 23.61 82.8366 23.7109 83.3379 23.7109C83.8327 23.7109 84.2656 23.61 84.6367 23.4082C85.0143 23.1999 85.3268 22.9167 85.5742 22.5586C85.8216 22.2005 86.0072 21.7904 86.1309 21.3281C86.2611 20.8594 86.3262 20.3613 86.3262 19.834V19.6094C86.3262 19.0885 86.2611 18.597 86.1309 18.1348C86.0072 17.666 85.8184 17.2526 85.5645 16.8945C85.3171 16.5299 85.0046 16.2435 84.627 16.0352C84.2559 15.8268 83.8197 15.7227 83.3184 15.7227C82.8236 15.7227 82.3874 15.8268 82.0098 16.0352C81.6387 16.2435 81.3262 16.5299 81.0723 16.8945C80.8249 17.2526 80.6393 17.666 80.5156 18.1348C80.3919 18.597 80.3301 19.0885 80.3301 19.6094ZM92.2148 16.0938V25H90.4082V14.4336H92.166L92.2148 16.0938ZM95.5156 14.375L95.5059 16.0547C95.3561 16.0221 95.2129 16.0026 95.0762 15.9961C94.946 15.9831 94.7962 15.9766 94.627 15.9766C94.2103 15.9766 93.8424 16.0417 93.5234 16.1719C93.2044 16.3021 92.9342 16.4844 92.7129 16.7188C92.4915 16.9531 92.3158 17.2331 92.1855 17.5586C92.0618 17.8776 91.9805 18.2292 91.9414 18.6133L91.4336 18.9062C91.4336 18.2682 91.4954 17.6693 91.6191 17.1094C91.7493 16.5495 91.9479 16.0547 92.2148 15.625C92.4818 15.1888 92.8203 14.8503 93.2305 14.6094C93.6471 14.362 94.1419 14.2383 94.7148 14.2383C94.8451 14.2383 94.9948 14.2546 95.1641 14.2871C95.3333 14.3132 95.4505 14.3424 95.5156 14.375ZM102.098 14.4336V15.8203H96.3848V14.4336H102.098ZM98.3184 11.8652H100.125V22.3828C100.125 22.7409 100.18 23.0111 100.291 23.1934C100.402 23.3757 100.545 23.4961 100.721 23.5547C100.896 23.6133 101.085 23.6426 101.287 23.6426C101.437 23.6426 101.593 23.6296 101.756 23.6035C101.925 23.571 102.052 23.5449 102.137 23.5254L102.146 25C102.003 25.0456 101.814 25.0879 101.58 25.127C101.352 25.1725 101.076 25.1953 100.75 25.1953C100.307 25.1953 99.9004 25.1074 99.5293 24.9316C99.1582 24.7559 98.862 24.4629 98.6406 24.0527C98.4258 23.6361 98.3184 23.0762 98.3184 22.373V11.8652Z" fill="#9B7BFF"/>
<path d="M99.9783 6.91304C101.023 6.91304 101.87 6.06628 101.87 5.02174C101.87 3.9772 101.023 3.13043 99.9783 3.13043C98.9337 3.13043 98.087 3.9772 98.087 5.02174C98.087 6.06628 98.9337 6.91304 99.9783 6.91304Z" fill="#EBE5FF"/>
<path d="M106.283 3.13044C106.979 3.13044 107.543 2.56592 107.543 1.86957C107.543 1.17321 106.979 0.608696 106.283 0.608696C105.586 0.608696 105.022 1.17321 105.022 1.86957C105.022 2.56592 105.586 3.13044 106.283 3.13044Z" fill="#EBE5FF"/>
<path d="M112.587 10.6957C113.98 10.6957 115.109 9.56663 115.109 8.17391C115.109 6.7812 113.98 5.65217 112.587 5.65217C111.194 5.65217 110.065 6.7812 110.065 8.17391C110.065 9.56663 111.194 10.6957 112.587 10.6957Z" fill="#EBE5FF"/>
<path d="M115.739 4.39131C116.435 4.39131 117 3.82679 117 3.13044C117 2.43408 116.435 1.86957 115.739 1.86957C115.043 1.86957 114.478 2.43408 114.478 3.13044C114.478 3.82679 115.043 4.39131 115.739 4.39131Z" fill="#EBE5FF"/>
<path d="M8.11278 22.6767L13.3947 14.7538L18.6767 18.9793L23.9586 12.1128" stroke="white" stroke-linecap="round" stroke-linejoin="round"/>
<path d="M8.11278 24.7895C9.27964 24.7895 10.2256 23.8436 10.2256 22.6767C10.2256 21.5098 9.27964 20.5639 8.11278 20.5639C6.94592 20.5639 6 21.5098 6 22.6767C6 23.8436 6.94592 24.7895 8.11278 24.7895Z" fill="white"/>
<path d="M13.3947 16.8665C14.5616 16.8665 15.5075 15.9206 15.5075 14.7538C15.5075 13.5869 14.5616 12.641 13.3947 12.641C12.2279 12.641 11.282 13.5869 11.282 14.7538C11.282 15.9206 12.2279 16.8665 13.3947 16.8665Z" fill="white"/>
<path d="M18.6767 21.0921C19.8436 21.0921 20.7895 20.1462 20.7895 18.9793C20.7895 17.8125 19.8436 16.8665 18.6767 16.8665C17.5098 16.8665 16.5639 17.8125 16.5639 18.9793C16.5639 20.1462 17.5098 21.0921 18.6767 21.0921Z" fill="white"/>
<path d="M23.9587 14.2256C25.1255 14.2256 26.0714 13.2796 26.0714 12.1128C26.0714 10.9459 25.1255 10 23.9587 10C22.7918 10 21.8459 10.9459 21.8459 12.1128C21.8459 13.2796 22.7918 14.2256 23.9587 14.2256Z" fill="white"/>
<defs>
<linearGradient id="paint0_linear_7_920" x1="6.93478" y1="6.33696" x2="25.2174" y2="32.5" gradientUnits="userSpaceOnUse">
<stop stop-color="#9945FF"/>
<stop offset="0.419408" stop-color="#6588D6"/>
<stop offset="1" stop-color="#14F195"/>
</linearGradient>
</defs>
</svg>
